<?xml version="1.0" encoding="UTF-8" standalone="no"?>
<!DOCTYPE svg PUBLIC "-//W3C//DTD SVG 1.1//EN" "http://www.w3.org/Graphics/SVG/1.1/DTD/svg11.dtd">
<svg width="100%" height="100%" viewBox="0 0 151 195" version="1.1" xmlns="http://www.w3.org/2000/svg" xmlns:xlink="http://www.w3.org/1999/xlink" xml:space="preserve" xmlns:serif="http://www.serif.com/" style="fill-rule:evenodd;clip-rule:evenodd;stroke-linejoin:round;stroke-miterlimit:2;">
    <g transform="matrix(1,0,0,1,-409.911,-178.528)">
        <g transform="matrix(1,0,0,1,-71.6884,-68.9404)">
            <g transform="matrix(1.13601,0,0,1.22395,388.468,-3.68804)">
                <g transform="matrix(53.8285,0,0,53.8285,79.6334,232.87)">
                    <path d="M0.168,-0.405C0.177,-0.42 0.19,-0.434 0.206,-0.446C0.221,-0.457 0.239,-0.467 0.258,-0.475C0.277,-0.483 0.297,-0.489 0.318,-0.493C0.339,-0.497 0.361,-0.499 0.382,-0.499L0.395,-0.499L0.395,-0.375L0.382,-0.375C0.358,-0.375 0.333,-0.37 0.308,-0.361C0.283,-0.351 0.26,-0.338 0.239,-0.323C0.218,-0.307 0.201,-0.289 0.188,-0.27C0.175,-0.251 0.168,-0.231 0.168,-0.212L0.168,-0L0.044,-0L0.044,-0.513L0.168,-0.513L0.168,-0.405Z" style="fill-rule:nonzero;"/>
                </g>
                <g transform="matrix(53.8285,0,0,53.8285,102.564,232.87)">
                    <path d="M0.032,-0.328C0.032,-0.353 0.037,-0.376 0.046,-0.398C0.055,-0.419 0.068,-0.438 0.083,-0.455C0.098,-0.472 0.116,-0.485 0.136,-0.495C0.156,-0.504 0.176,-0.509 0.196,-0.509L0.31,-0.509C0.336,-0.509 0.359,-0.503 0.38,-0.493C0.4,-0.482 0.417,-0.468 0.431,-0.451C0.444,-0.434 0.455,-0.415 0.463,-0.394C0.47,-0.373 0.474,-0.352 0.474,-0.332L0.474,-0.203L0.15,-0.203L0.15,-0.176C0.15,-0.152 0.157,-0.135 0.17,-0.125C0.183,-0.115 0.201,-0.11 0.223,-0.11L0.456,-0.11L0.456,0.002L0.197,0.002C0.174,0.002 0.153,-0.003 0.133,-0.012C0.113,-0.021 0.096,-0.033 0.081,-0.048C0.066,-0.063 0.054,-0.082 0.045,-0.103C0.036,-0.124 0.032,-0.148 0.032,-0.173L0.032,-0.328ZM0.151,-0.298L0.358,-0.298L0.358,-0.303C0.358,-0.329 0.351,-0.351 0.338,-0.368C0.325,-0.385 0.307,-0.393 0.284,-0.393L0.222,-0.393C0.211,-0.393 0.202,-0.391 0.193,-0.386C0.184,-0.381 0.177,-0.374 0.171,-0.366C0.165,-0.358 0.16,-0.349 0.157,-0.338C0.153,-0.327 0.151,-0.315 0.151,-0.303L0.151,-0.298Z" style="fill-rule:nonzero;"/>
                </g>
                <g transform="matrix(53.8285,0,0,53.8285,129.802,232.87)">
                    <rect x="0.047" y="-0.092" width="0.119" height="0.115" style="fill-rule:nonzero;"/>
                </g>
                <g transform="matrix(53.8285,0,0,53.8285,140.567,232.87)">
                    <path d="M0.252,-0.115C0.268,-0.115 0.282,-0.119 0.293,-0.127C0.304,-0.134 0.312,-0.145 0.315,-0.158L0.434,-0.158C0.428,-0.11 0.409,-0.072 0.378,-0.043C0.347,-0.014 0.305,-0 0.252,-0L0.211,-0C0.182,-0 0.156,-0.004 0.133,-0.013C0.11,-0.022 0.09,-0.034 0.074,-0.051C0.058,-0.067 0.046,-0.087 0.037,-0.11C0.027,-0.133 0.023,-0.158 0.023,-0.186L0.023,-0.323C0.023,-0.352 0.027,-0.377 0.037,-0.4C0.046,-0.423 0.058,-0.442 0.074,-0.458C0.09,-0.474 0.11,-0.487 0.133,-0.496C0.156,-0.505 0.182,-0.509 0.211,-0.509L0.252,-0.509C0.306,-0.509 0.349,-0.495 0.38,-0.466C0.411,-0.437 0.429,-0.398 0.434,-0.348L0.316,-0.348C0.312,-0.363 0.305,-0.374 0.294,-0.382C0.283,-0.39 0.269,-0.394 0.252,-0.394L0.211,-0.394C0.19,-0.394 0.172,-0.387 0.159,-0.374C0.145,-0.36 0.138,-0.342 0.138,-0.32L0.138,-0.19C0.138,-0.168 0.145,-0.15 0.159,-0.136C0.172,-0.122 0.19,-0.115 0.211,-0.115L0.252,-0.115Z" style="fill-rule:nonzero;"/>
                </g>
                <g transform="matrix(53.8285,0,0,53.8285,164.844,232.87)">
                    <path d="M0.394,-0.41L0.195,-0.41C0.186,-0.41 0.179,-0.409 0.174,-0.406C0.168,-0.403 0.163,-0.398 0.159,-0.393C0.155,-0.388 0.152,-0.382 0.15,-0.376C0.148,-0.369 0.147,-0.363 0.147,-0.357C0.147,-0.344 0.151,-0.333 0.16,-0.323C0.168,-0.312 0.178,-0.307 0.19,-0.307L0.302,-0.307C0.325,-0.307 0.346,-0.303 0.364,-0.295C0.381,-0.287 0.396,-0.276 0.408,-0.262C0.419,-0.248 0.428,-0.231 0.434,-0.212C0.439,-0.193 0.442,-0.172 0.442,-0.15L0.442,-0.147C0.442,-0.125 0.439,-0.105 0.432,-0.087C0.424,-0.069 0.415,-0.054 0.402,-0.041C0.389,-0.028 0.374,-0.018 0.357,-0.011C0.34,-0.004 0.321,-0 0.302,-0L0.06,-0L0.06,-0.099L0.268,-0.099C0.283,-0.099 0.298,-0.103 0.311,-0.112C0.324,-0.121 0.33,-0.134 0.331,-0.151L0.331,-0.15C0.331,-0.16 0.329,-0.168 0.326,-0.175C0.322,-0.182 0.317,-0.187 0.311,-0.192C0.305,-0.196 0.298,-0.199 0.291,-0.201C0.284,-0.203 0.276,-0.204 0.268,-0.204L0.178,-0.204C0.149,-0.204 0.125,-0.209 0.106,-0.218C0.087,-0.227 0.071,-0.239 0.061,-0.254C0.049,-0.269 0.042,-0.285 0.038,-0.304C0.034,-0.323 0.032,-0.342 0.032,-0.361C0.032,-0.381 0.035,-0.4 0.041,-0.419C0.047,-0.438 0.056,-0.454 0.068,-0.469C0.079,-0.483 0.094,-0.494 0.111,-0.502C0.128,-0.51 0.148,-0.514 0.17,-0.514L0.394,-0.514L0.394,-0.41Z" style="fill-rule:nonzero;"/>
                </g>
                <g transform="matrix(53.8285,0,0,53.8285,190.359,232.87)">
                    <path d="M0.394,-0.41L0.195,-0.41C0.186,-0.41 0.179,-0.409 0.174,-0.406C0.168,-0.403 0.163,-0.398 0.159,-0.393C0.155,-0.388 0.152,-0.382 0.15,-0.376C0.148,-0.369 0.147,-0.363 0.147,-0.357C0.147,-0.344 0.151,-0.333 0.16,-0.323C0.168,-0.312 0.178,-0.307 0.19,-0.307L0.302,-0.307C0.325,-0.307 0.346,-0.303 0.364,-0.295C0.381,-0.287 0.396,-0.276 0.408,-0.262C0.419,-0.248 0.428,-0.231 0.434,-0.212C0.439,-0.193 0.442,-0.172 0.442,-0.15L0.442,-0.147C0.442,-0.125 0.439,-0.105 0.432,-0.087C0.424,-0.069 0.415,-0.054 0.402,-0.041C0.389,-0.028 0.374,-0.018 0.357,-0.011C0.34,-0.004 0.321,-0 0.302,-0L0.06,-0L0.06,-0.099L0.268,-0.099C0.283,-0.099 0.298,-0.103 0.311,-0.112C0.324,-0.121 0.33,-0.134 0.331,-0.151L0.331,-0.15C0.331,-0.16 0.329,-0.168 0.326,-0.175C0.322,-0.182 0.317,-0.187 0.311,-0.192C0.305,-0.196 0.298,-0.199 0.291,-0.201C0.284,-0.203 0.276,-0.204 0.268,-0.204L0.178,-0.204C0.149,-0.204 0.125,-0.209 0.106,-0.218C0.087,-0.227 0.071,-0.239 0.061,-0.254C0.049,-0.269 0.042,-0.285 0.038,-0.304C0.034,-0.323 0.032,-0.342 0.032,-0.361C0.032,-0.381 0.035,-0.4 0.041,-0.419C0.047,-0.438 0.056,-0.454 0.068,-0.469C0.079,-0.483 0.094,-0.494 0.111,-0.502C0.128,-0.51 0.148,-0.514 0.17,-0.514L0.394,-0.514L0.394,-0.41Z" style="fill-rule:nonzero;"/>
                </g>
            </g>
            <g>
                <g transform="matrix(0.838101,0,0,0.862854,213.253,186.235)">
                    <path d="M499.16,122.063L320.184,122.063L320.184,284.315C320.184,290.716 325.526,295.904 332.116,295.904L487.229,295.904C493.818,295.904 499.16,290.716 499.16,284.315L499.16,122.063Z" style="fill:rgb(0,87,231);"/>
                </g>
                <g transform="matrix(1,0,0,1,60.1868,-95.6752)">
                    <g transform="matrix(-288,-3.52698e-14,3.52698e-14,-288,658.01,390.882)">
                        <path d="M0.531,-0.323L0.488,-0.44L0.624,-0.273L0.301,-0.273L0.301,-0.323L0.531,-0.323Z" style="fill:white;fill-rule:nonzero;"/>
                    </g>
                    <g transform="matrix(288,0,0,288,334.816,533.582)">
                        <path d="M0.531,-0.323L0.488,-0.44L0.624,-0.273L0.301,-0.272L0.301,-0.323L0.531,-0.323Z" style="fill:white;fill-rule:nonzero;"/>
                    </g>
                </g>
            </g>
        </g>
    </g>
</svg>
